<?xml version="1.0" encoding="utf-8"?>
<!-- Generator: Adobe Illustrator 26.2.1, SVG Export Plug-In . SVG Version: 6.00 Build 0)  -->
<svg version="1.1" id="master-artboard" xmlns="http://www.w3.org/2000/svg" xmlns:xlink="http://www.w3.org/1999/xlink" x="0px"
	 y="0px" viewBox="0 0 500 127" style="enable-background:new 0 0 500 127;" xml:space="preserve">
<style type="text/css">
	.st0{fill:#0B2E4D;stroke:#AAAAAA;stroke-width:0.7494;stroke-miterlimit:2.9976;}
	.st1{fill:#CCCCCC;}
	.st2{fill:#999999;}
	.st3{fill:#666666;}
	.st4{fill:#333333;}
</style>
<path class="st0" d="M164.5,64.3L164.5,64.3"/>
<path d="M42.7,17.2H42c-5.1-0.1-10,2.5-12.5,6.8h-0.1L16.9,45.9h-3v-4.7c0,0,0.1-2.5-1.5-2.3c-0.3,0-0.7,0-0.8,0.1
	C9.2,39.6,5,40.8,5,40.8c-1,0.5-1.8,1.4-1.7,2.5v3.3c0,0-0.1,1,2.2,1.3h9.8c0,0.1-8.3,8.7-8.3,8.7s-3.2,2.6-2.2,13.3
	c0.8,10.7,2.1,36.9,2.1,36.9s-0.1,4.4,2.8,4.6h3.2l0.1,0.1h0.7l0.1-0.1H32c0,0.1,0.1,0.1,0.3,0.1c1-0.1,1.9-0.7,2.5-1.3
	c0.8-0.9,0.7-6,0.7-6s0-0.7,2.1-0.7h69.9c2.1,0,2.1,0.7,2.1,0.7s-0.3,5,0.7,6c0.7,0.7,1.5,1,2.5,1.3c0.1,0,0.3,0,0.3-0.1h18.3
	l0.3,0.1h0.7l0.1-0.1h3c3-0.1,2.8-4.6,2.8-4.6s1.1-26.3,2.1-36.9c0.8-10.7-2.1-13.3-2.1-13.3s-8.3-8.7-8.3-8.9h9.7
	c2.5-0.1,2.2-1.3,2.2-1.3v-3.3c0.1-1-0.7-2.1-1.7-2.5c0,0-4.2-1-6.5-1.8c-0.3-0.1-0.6-0.1-0.7-0.1c-1.8-0.1-1.5,2.3-1.5,2.3v4.7
	h-3.2l-12.6-21.9l0,0c-2.5-4.3-7.5-6.9-12.6-6.8h-0.7c-8,0.3-16.6,0.5-25.2,0.5h-9.3C59.4,17.7,50.8,17.5,42.7,17.2L42.7,17.2z
	 M54.8,91c-1.7,0-3-1.2-3-2.7l0,0l0,0c0-1.6,1.4-2.9,3-2.9h35.6c1.7,0,2.9,1.3,2.9,2.9l0,0c0,1.6-1.4,2.9-3,2.9l0,0L54.8,91L54.8,91
	z M49.5,78.6c-1.9,0-2.6-1.8-3.5-3.5l-4.8-9c-1-1.7,1.7-3.5,3.5-3.5h55.8c1.9,0.1,4.4,1.8,3.5,3.5l-4.8,9c-0.8,1.7-1.7,3.5-3.5,3.5
	H49.5z M107.4,71.7c0.6-2.2,1.1-5.2,2.6-6.1c2.1-2.2,9.6-4.6,15-4.6h0.7c4,0.1,12.1,4.2,7.5,8.3c-1.4,1.3-3.2,2.1-5,2.5L107.4,71.7z
	 M72.9,103.5L72.9,103.5 M18.2,74.4c-1.8-0.4-3.6-1.2-5-2.5c-4.6-4.1,3.5-8.2,7.5-8.3h0.7c5.4,0,12.9,2.4,15,4.6
	c1.5,0.9,2,3.9,2.6,6.1L18.2,74.4z"/>
<g>
	<path class="st1" d="M415.4,15.5h32.8V89h51.2v24h-84V15.5z"/>
	<path class="st2" d="M381.6,75.8l-11.7-35l-11.6,35H381.6z M388.4,96.9h-37.3L346,113h-33.5l39.9-97.4h35.8l39.9,97.4h-34.4
		L388.4,96.9z"/>
	<path class="st3" d="M233.3,15.5h87.9v20.8h-55v15.5h51.1v19.9h-51.1v19.2h56.6V113h-89.5L233.3,15.5L233.3,15.5z"/>
	<path class="st4" d="M147.4,15.5h48.7c9.6,0,17.4,1.2,23.3,3.6c5.9,2.4,10.8,5.8,14.7,10.3s6.7,9.7,8.4,15.6s2.6,12.2,2.6,18.9
		c0,10.4-1.3,18.5-3.9,24.2c-2.6,5.7-6.2,10.5-10.8,14.4s-9.5,6.5-14.8,7.7c-7.2,1.8-13.7,2.7-19.6,2.7h-48.7V15.5H147.4z
		 M180.2,37.6v53.2h8c6.9,0,11.7-0.7,14.6-2.1c2.9-1.4,5.2-3.8,6.8-7.3s2.5-9.1,2.5-16.9c0-10.3-1.8-17.4-5.5-21.2
		s-9.8-5.7-18.3-5.7H180.2z"/>
</g>
</svg>
