<?xml version="1.0" encoding="utf-8"?>
<!-- Generator: Adobe Illustrator 26.2.1, SVG Export Plug-In . SVG Version: 6.00 Build 0)  -->
<svg version="1.1" id="master-artboard" xmlns="http://www.w3.org/2000/svg" xmlns:xlink="http://www.w3.org/1999/xlink" x="0px"
	 y="0px" viewBox="0 0 500 500" style="enable-background:new 0 0 500 500;" xml:space="preserve">
<style type="text/css">
	.st0{fill:#0B2E4D;stroke:#AAAAAA;stroke-width:0.7494;stroke-miterlimit:2.9976;}
	.st1{fill:#CCCCCC;}
	.st2{fill:#999999;}
	.st3{fill:#666666;}
	.st4{fill:#333333;}
</style>
<g transform="matrix(0.9083147057845192, 0, 0, 0.9083147057845192, 0.000009809222319745459, 194.05687860360402)">
	<path class="st0" d="M221.3,125.9"/>
	<path class="st0" d="M329.1,116.4"/>
	<path class="st0" d="M292.2,23L292.2,23"/>
</g>
<path d="M265.4,256.7L265.4,256.7 M195.8,83.9h-1.3c-9.3-0.2-18.3,4.6-22.9,12.5h-0.2l-22.9,40.1H143v-8.6c0,0,0.2-4.6-2.7-4.2
	c-0.5,0-1.3,0-1.5,0.2c-4.4,1.1-12.1,3.3-12.1,3.3c-1.8,0.9-3.3,2.6-3.1,4.6v6c0,0-0.2,1.8,4,2.4h18c0,0.2-15.2,15.9-15.2,15.9
	s-5.9,4.8-4,24.4c1.5,19.6,3.8,67.6,3.8,67.6s-0.2,8.1,5.1,8.4h5.9l0.2,0.2h1.3l0.2-0.2h33.4c0,0.2,0.2,0.2,0.5,0.2
	c1.8-0.2,3.5-1.3,4.6-2.4c1.5-1.6,1.3-11,1.3-11s0-1.3,3.8-1.3h128.1c3.8,0,3.8,1.3,3.8,1.3s-0.5,9.2,1.3,11
	c1.3,1.3,2.7,1.8,4.6,2.4c0.2,0,0.5,0,0.5-0.2h33.5l0.5,0.2h1.3l0.2-0.2h5.5c5.5-0.2,5.1-8.4,5.1-8.4s2-48.2,3.8-67.6
	c1.5-19.6-3.8-24.4-3.8-24.4s-15.1-16-15.1-16.3h17.8c4.6-0.2,4-2.4,4-2.4v-6c0.2-1.8-1.3-3.8-3.1-4.6c0,0-7.7-1.8-11.9-3.3
	c-0.5-0.2-1.1-0.2-1.3-0.2c-3.3-0.2-2.7,4.2-2.7,4.2v8.6h-5.9L329.6,96l0,0c-4.6-7.9-13.7-12.6-23.1-12.5h-1.3
	c-14.7,0.5-30.4,0.9-46.2,0.9h-17C226.4,84.8,210.6,84.4,195.8,83.9L195.8,83.9z M218.5,219.1c-3.1,0-5.5-2.2-5.5-4.9l0,0l0,0
	c0-2.9,2.6-5.3,5.5-5.3h65.3c3.1,0,5.3,2.4,5.3,5.3l0,0c0,2.9-2.6,5.3-5.5,5.3l0,0L218.5,219.1L218.5,219.1z M208.3,196.4
	c-3.5,0-4.8-3.3-6.4-6.4l-8.8-16.5c-1.8-3.1,3.1-6.4,6.4-6.4h102.3c3.5,0.2,8.1,3.3,6.4,6.4l-8.8,16.5c-1.5,3.1-3.1,6.4-6.4,6.4
	H208.3z M314.4,183.7c1.1-4,2-9.5,4.8-11.2c3.8-4,17.6-8.4,27.5-8.4h1.3c7.3,0.2,22.2,7.7,13.7,15.2c-2.6,2.4-5.9,3.8-9.2,4.6
	L314.4,183.7z M251.1,242L251.1,242 M150.8,188.7c-3.3-0.7-6.6-2.2-9.2-4.6c-8.4-7.5,6.4-15,13.7-15.2h1.3c9.9,0,23.6,4.4,27.5,8.4
	c2.7,1.6,3.7,7.1,4.8,11.2L150.8,188.7z"/>
<g>
	<path class="st1" d="M369.4,283.7H412v92.6h66.5v30.3H369.4V283.7z"/>
	<path class="st2" d="M325.6,359.7l-15.2-44.2l-15.1,44.2H325.6z M334.4,386.3H286l-6.7,20.3h-43.5l51.8-122.9h46.5l51.8,122.9
		h-44.6L334.4,386.3z"/>
	<path class="st3" d="M133.1,283.7h114.2v26.2h-71.5v19.5h66.3v25.1h-66.3v24.2h73.5v27.8H133.1V283.7z"/>
	<path class="st4" d="M21.5,283.7h63.3c12.5,0,22.6,1.5,30.2,4.5c7.7,3,14,7.3,19,13c5,5.6,8.7,12.2,10.9,19.7
		c2.3,7.5,3.4,15.4,3.4,23.8c0,13.1-1.7,23.3-5,30.6c-3.4,7.2-8,13.3-14,18.2c-6,4.9-12.4,8.1-19.2,9.8c-9.3,2.2-17.8,3.4-25.4,3.4
		H21.5V283.7z M64.1,311.5v67.1h10.4c8.9,0,15.2-0.9,19-2.6s6.7-4.8,8.8-9.2c2.1-4.4,3.2-11.5,3.2-21.3c0-13-2.4-21.9-7.1-26.7
		c-4.8-4.8-12.7-7.2-23.7-7.2L64.1,311.5L64.1,311.5z"/>
</g>
</svg>
